<svg width="58" height="58" viewBox="0 0 58 58" fill="none" xmlns="http://www.w3.org/2000/svg">
<path d="M49.5682 12.6875H41.7854L40.8791 9.96875C40.4423 8.64864 39.6002 7.50001 38.4725 6.68642C37.3449 5.87284 35.9893 5.43579 34.5988 5.43751H23.4012C22.0111 5.43644 20.656 5.87378 19.5288 6.6873C18.4016 7.50082 17.5596 8.64909 17.1227 9.96875L16.2146 12.6875H8.43175C6.6768 12.6894 4.99429 13.3874 3.75335 14.6284C2.51242 15.8693 1.81442 17.5518 1.8125 19.3067V45.9505C1.81634 47.7042 2.51518 49.3848 3.75591 50.6242C4.99664 51.8636 6.67806 52.5606 8.43175 52.5625H49.5755C51.3292 52.5586 53.0098 51.8598 54.2492 50.6191C55.4886 49.3783 56.1856 47.6969 56.1875 45.9432V19.2995C56.1837 17.5458 55.4848 15.8652 54.2441 14.6258C53.0034 13.3864 51.3219 12.6894 49.5682 12.6875ZM52.5625 45.9432C52.5615 46.7371 52.2458 47.4981 51.6844 48.0594C51.1231 48.6207 50.3621 48.9365 49.5682 48.9375H8.43175C7.63792 48.9365 6.87688 48.6207 6.31556 48.0594C5.75423 47.4981 5.43846 46.7371 5.4375 45.9432V19.2995C5.44037 18.5069 5.75699 17.7477 6.31811 17.188C6.87922 16.6282 7.63917 16.3135 8.43175 16.3125H17.5214C17.9017 16.3122 18.2722 16.1923 18.5806 15.9698C18.8889 15.7474 19.1195 15.4335 19.2397 15.0727L20.561 11.1088C20.7594 10.5126 21.1406 9.99401 21.6504 9.62669C22.1602 9.25937 22.7728 9.06196 23.4012 9.0625H34.5988C35.2275 9.06182 35.8403 9.25937 36.3503 9.62708C36.8602 9.99479 37.2411 10.5139 37.439 11.1106L38.7603 15.0727C38.8805 15.4335 39.1111 15.7474 39.4194 15.9698C39.7278 16.1923 40.0983 16.3122 40.4786 16.3125H49.5682C50.3621 16.3135 51.1231 16.6292 51.6844 17.1906C52.2458 17.7519 52.5615 18.5129 52.5625 19.3067V45.9432Z" fill="#A5ADBC"/>
<path d="M29 18.125C26.3114 18.125 23.6832 18.9223 21.4477 20.416C19.2122 21.9097 17.4699 24.0327 16.441 26.5166C15.4121 29.0006 15.1429 31.7338 15.6675 34.3708C16.192 37.0077 17.4866 39.4299 19.3878 41.331C21.2889 43.2321 23.7111 44.5268 26.348 45.0513C28.9849 45.5758 31.7182 45.3066 34.2021 44.2777C36.686 43.2489 38.8091 41.5065 40.3028 39.271C41.7965 37.0356 42.5937 34.4073 42.5937 31.7188C42.5899 28.1146 41.1565 24.6592 38.608 22.1108C36.0595 19.5623 32.6041 18.1288 29 18.125ZM29 41.6875C27.0284 41.6875 25.101 41.1028 23.4617 40.0075C21.8223 38.9121 20.5446 37.3552 19.7901 35.5336C19.0356 33.7121 18.8382 31.7077 19.2228 29.7739C19.6074 27.8402 20.5569 26.0639 21.951 24.6698C23.3452 23.2756 25.1214 22.3262 27.0552 21.9415C28.9889 21.5569 30.9933 21.7543 32.8149 22.5088C34.6364 23.2633 36.1933 24.5411 37.2887 26.1804C38.3841 27.8198 38.9687 29.7471 38.9687 31.7188C38.9658 34.3617 37.9146 36.8957 36.0458 38.7645C34.1769 40.6334 31.643 41.6846 29 41.6875Z" fill="#A5ADBC"/>
<path d="M47.125 23.5625C48.126 23.5625 48.9375 22.751 48.9375 21.75C48.9375 20.749 48.126 19.9375 47.125 19.9375C46.124 19.9375 45.3125 20.749 45.3125 21.75C45.3125 22.751 46.124 23.5625 47.125 23.5625Z" fill="#A5ADBC"/>
</svg>
