<svg width="20" height="20" viewBox="0 0 20 20" fill="none" xmlns="http://www.w3.org/2000/svg">
<path d="M6.07843 9.01961H2.94118C1.31681 9.01961 0 7.70279 0 6.07843V2.94118C0 1.31681 1.31681 0 2.94118 0H6.07843C7.70279 0 9.01961 1.31681 9.01961 2.94118V6.07843C9.01961 7.70279 7.70279 9.01961 6.07843 9.01961ZM2.94118 1.17647C1.96657 1.17647 1.17647 1.96657 1.17647 2.94118V6.07843C1.17647 7.05304 1.96657 7.84314 2.94118 7.84314H6.07843C7.05304 7.84314 7.84314 7.05304 7.84314 6.07843V2.94118C7.84314 1.96657 7.05304 1.17647 6.07843 1.17647H2.94118Z" fill="#374257"/>
<path d="M6.07843 20H2.94118C1.31681 20 0 18.6832 0 17.0588V13.9215C0 12.2972 1.31681 10.9803 2.94118 10.9803H6.07843C7.70279 10.9803 9.01961 12.2972 9.01961 13.9215V17.0588C9.01961 18.6832 7.70279 20 6.07843 20ZM2.94118 12.1568C1.96657 12.1568 1.17647 12.9469 1.17647 13.9215V17.0588C1.17647 18.0334 1.96657 18.8235 2.94118 18.8235H6.07843C7.05304 18.8235 7.84314 18.0334 7.84314 17.0588V13.9215C7.84314 12.9469 7.05304 12.1568 6.07843 12.1568H2.94118Z" fill="#616876"/>
<path d="M17.0589 20H13.9216C12.2973 20 10.9805 18.6832 10.9805 17.0588V13.9215C10.9805 12.2972 12.2973 10.9803 13.9216 10.9803H17.0589C18.6833 10.9803 20.0001 12.2972 20.0001 13.9215V17.0588C20.0001 18.6832 18.6833 20 17.0589 20ZM13.9216 12.1568C12.947 12.1568 12.1569 12.9469 12.1569 13.9215V17.0588C12.1569 18.0334 12.947 18.8235 13.9216 18.8235H17.0589C18.0335 18.8235 18.8236 18.0334 18.8236 17.0588V13.9215C18.8236 12.9469 18.0335 12.1568 17.0589 12.1568H13.9216Z" fill="#616876"/>
<path d="M17.0589 9.01961H13.9216C12.2973 9.01961 10.9805 7.7028 10.9805 6.07843V2.94118C10.9805 1.31681 12.2973 0 13.9216 0H17.0589C18.6833 0 20.0001 1.31681 20.0001 2.94118V6.07843C20.0001 7.7028 18.6833 9.01961 17.0589 9.01961ZM13.9216 1.17647C12.947 1.17647 12.1569 1.96657 12.1569 2.94118V6.07843C12.1569 7.05304 12.947 7.84314 13.9216 7.84314H17.0589C18.0335 7.84314 18.8236 7.05304 18.8236 6.07843V2.94118C18.8236 1.96657 18.0335 1.17647 17.0589 1.17647H13.9216Z" fill="#616876"/>
</svg>
