<svg width="60" height="60" viewBox="0 0 60 60" fill="none" xmlns="http://www.w3.org/2000/svg">
<g clip-path="url(#clip0)">
<path d="M30.0002 0C13.458 0 0 13.4578 0 29.9998C0 46.5418 13.458 59.9996 30.0002 59.9996C46.5422 59.9996 60 46.5418 60 29.9998C60 13.4578 46.5422 0 30.0002 0ZM30.0002 55.0816C16.1698 55.0816 4.918 43.8302 4.918 29.9998C4.918 16.1696 16.1698 4.918 30.0002 4.918C43.8304 4.918 55.082 16.1696 55.082 29.9998C55.082 43.8302 43.8304 55.0816 30.0002 55.0816Z" fill="#26AD5C"/>
<path d="M42.9761 18.485L25.1638 36.2974L17.02 28.1536C16.0596 27.1934 14.5028 27.1934 13.5424 28.1536C12.5822 29.114 12.5822 30.6708 13.5424 31.6312L23.425 41.5138C23.9052 41.9938 24.5345 42.234 25.1638 42.234C25.7932 42.234 26.4225 41.9938 26.9027 41.5138L46.4537 21.9628C47.4139 21.0024 47.4139 19.4456 46.4537 18.4852C45.4933 17.5248 43.9362 17.5248 42.9761 18.485Z" fill="#26AD5C"/>
</g>
<defs>
<clipPath id="clip0">
<rect width="60" height="60" fill="white"/>
</clipPath>
</defs>
</svg>
