<svg width="20" height="20" viewBox="0 0 20 20" fill="none" xmlns="http://www.w3.org/2000/svg">
<g clip-path="url(#clip0)">
<path fill-rule="evenodd" clip-rule="evenodd" d="M5.93692 5.49995C5.71489 6.36253 4.93187 6.99992 3.99996 6.99992C2.8954 6.99992 2 6.10452 2 4.99996C2 3.8954 2.8954 3 3.99996 3C4.93187 3 5.71489 3.63739 5.93692 4.49997H19.4999C19.776 4.49997 19.9999 4.72379 19.9999 4.99996C19.9999 5.27613 19.776 5.49995 19.4999 5.49995H5.93692ZM4.99994 4.99996C4.99994 5.55229 4.55218 5.99994 3.99996 5.99994C3.44773 5.99994 2.99998 5.55219 2.99998 4.99996C2.99998 4.44773 3.44773 3.99998 3.99996 3.99998C4.55218 3.99998 4.99994 4.44763 4.99994 4.99996Z" fill="#374257"/>
<path d="M0.499989 5.49998H2.06296C2.0218 5.34021 1.99996 5.17263 1.99996 4.99999C1.99996 4.82735 2.0218 4.65977 2.06296 4.5H0.499989C0.223824 4.5 0 4.72382 0 4.99999C0 5.27615 0.223824 5.49998 0.499989 5.49998Z" fill="#616876"/>
<path fill-rule="evenodd" clip-rule="evenodd" d="M11.937 14.4998C11.7149 13.6373 10.9318 12.9999 10 12.9999C9.06819 12.9999 8.28497 13.6373 8.06304 14.4998H0.499989C0.223824 14.4998 0 14.7238 0 14.9998C0 15.2759 0.223824 15.4998 0.499989 15.4998H8.06294C8.28497 16.3624 9.06809 16.9998 9.9999 16.9998C10.9317 16.9998 11.7149 16.3624 11.9369 15.4998H19.4998C19.7759 15.4998 19.9998 15.2759 19.9998 14.9998C19.9998 14.7238 19.7759 14.4998 19.4998 14.4998H11.937ZM10 15.9998C10.5523 15.9998 11 15.5522 11 14.9998C11 14.4475 10.5523 13.9999 10 13.9999C9.44767 13.9999 9.00002 14.4475 9.00002 14.9998C9.00002 15.5522 9.44767 15.9998 10 15.9998Z" fill="#616876"/>
<path fill-rule="evenodd" clip-rule="evenodd" d="M17.9369 9.49997C17.7149 8.63739 16.9318 8 16 8C15.0682 8 14.2849 8.63739 14.063 9.49997H0.499989C0.223824 9.49997 0 9.7239 0 9.99996C0 10.276 0.223824 10.5 0.499989 10.5H14.063C14.2851 11.3625 15.0682 11.9999 16 11.9999C16.9318 11.9999 17.715 11.3625 17.9369 10.5H19.4999C19.776 10.5 19.9999 10.276 19.9999 9.99996C19.9999 9.7239 19.776 9.49997 19.4999 9.49997H17.9369ZM16 10.9999C16.5523 10.9999 17 10.5523 17 9.99996C17 9.44763 16.5522 8.99998 16 8.99998C15.4476 8.99998 15 9.44763 15 9.99996C15 10.5523 15.4476 10.9999 16 10.9999Z" fill="#616876"/>
</g>
<defs>
<clipPath id="clip0">
<rect width="20" height="20" fill="white"/>
</clipPath>
</defs>
</svg>
