<svg width="18" height="18" viewBox="0 0 18 18" fill="none" xmlns="http://www.w3.org/2000/svg">
<path d="M15.6769 9.00006C15.6769 8.58708 15.3421 8.25229 14.9291 8.2523L10.7478 8.2523C10.1955 8.2523 9.74777 7.80458 9.74777 7.2523L9.74777 3.07097C9.74777 2.65799 9.41298 2.3232 9 2.3232C8.58702 2.3232 8.25223 2.65799 8.25223 3.07097L8.25223 7.2523C8.25223 7.80458 7.80452 8.2523 7.25223 8.2523L3.07091 8.2523C2.65793 8.2523 2.32314 8.58708 2.32314 9.00006C2.32314 9.41304 2.65793 9.74783 3.07091 9.74783L7.25223 9.74783C7.80452 9.74783 8.25223 10.1955 8.25223 10.7478V14.9292C8.25223 15.3421 8.58702 15.6769 9 15.6769C9.41298 15.6769 9.74777 15.3421 9.74777 14.9292V10.7478C9.74777 10.1955 10.1955 9.74783 10.7478 9.74783L14.9291 9.74783C15.3421 9.74783 15.6769 9.41304 15.6769 9.00006Z" fill="#374257"/>
</svg>
