<svg width="25" height="25" viewBox="0 0 25 25" fill="none" xmlns="http://www.w3.org/2000/svg">
<g clip-path="url(#clip0)">
<path fill-rule="evenodd" clip-rule="evenodd" d="M7.17969 21.9219C7.17969 20.7891 8.09804 19.8707 9.23088 19.8707C10.3637 19.8707 11.2821 20.7891 11.2821 21.9219C11.2821 23.0548 10.3637 23.9731 9.23088 23.9731C8.09804 23.9731 7.17969 23.0548 7.17969 21.9219Z" fill="#A5ADBC"/>
<path fill-rule="evenodd" clip-rule="evenodd" d="M18.4609 21.9219C18.4609 20.7891 19.3793 19.8707 20.5121 19.8707C21.645 19.8707 22.5633 20.7891 22.5633 21.9219C22.5633 23.0548 21.645 23.9731 20.5121 23.9731C19.3793 23.9731 18.4609 23.0548 18.4609 21.9219Z" fill="#A5ADBC"/>
<path fill-rule="evenodd" clip-rule="evenodd" d="M0 1.41C0 0.843575 0.459175 0.384399 1.0256 0.384399H5.12798C5.61681 0.384399 6.0377 0.729395 6.13364 1.20872L6.99501 5.51238H23.5887C23.8944 5.51238 24.1841 5.64871 24.3789 5.88422C24.5738 6.11972 24.6534 6.42986 24.5962 6.7301L22.9537 15.3425C22.8131 16.0508 22.4277 16.687 21.8652 17.1398C21.3055 17.5904 20.6059 17.8308 19.8877 17.8195H9.93664C9.21845 17.8308 8.51882 17.5904 7.95912 17.1398C7.39686 16.6872 7.01163 16.0513 6.87081 15.3434C6.87075 15.3431 6.87087 15.3437 6.87081 15.3434L5.15751 6.78331C5.15056 6.75499 5.14479 6.72621 5.14024 6.69703L4.28732 2.43559H1.0256C0.459175 2.43559 0 1.97642 0 1.41ZM7.40556 7.56358L8.88253 14.9429C8.92942 15.179 9.05786 15.3911 9.24536 15.542C9.43286 15.693 9.66747 15.7732 9.90813 15.7685L9.92778 15.7684H19.8966L19.9162 15.7685C20.1569 15.7732 20.3915 15.693 20.579 15.542C20.7656 15.3918 20.8937 15.181 20.9412 14.9462L22.3491 7.56358H7.40556Z" fill="#A5ADBC"/>
</g>
<defs>
<clipPath id="clip0">
<rect width="24.6143" height="24.6143" fill="white" transform="translate(0 0.384399)"/>
</clipPath>
</defs>
</svg>
