<svg width="20" height="21" viewBox="0 0 20 21" fill="none" xmlns="http://www.w3.org/2000/svg">
<path d="M0.390625 18.4575C0.174883 18.4575 0 18.6324 0 18.8481C0 19.0638 0.174883 19.2388 0.390625 19.2388H19.6094C19.8251 19.2388 20 19.0638 20 18.8481C20 18.6324 19.8251 18.4575 19.6094 18.4575H18.8594V16.3472C18.8594 16.1315 18.6845 15.9566 18.4688 15.9566C18.253 15.9566 18.0781 16.1315 18.0781 16.3472V18.4575H7.39137V12.6509C7.39137 12.4352 7.21648 12.2603 7.00074 12.2603H3.55762C3.34187 12.2603 3.16699 12.4352 3.16699 12.6509V18.4575H1.92188V10.973C2.05586 10.9957 2.19281 11.0063 2.32867 11.0054C3.08875 11.0002 3.81121 10.6086 4.23438 9.97794C4.66066 10.6132 5.39059 11.0058 6.15625 11.0058C6.92141 11.0058 7.65258 10.6133 8.07812 9.97794C8.50578 10.6126 9.23324 11.0058 10 11.0058C10.7656 11.0058 11.4958 10.6131 11.9219 9.97794C12.3288 10.5845 13.0141 10.9722 13.7445 11.0033C14.5445 11.0372 15.3197 10.6425 15.7656 9.97794C16.2691 10.7284 17.1865 11.1242 18.0781 10.973V12.9165C18.0781 13.1322 18.253 13.3071 18.4688 13.3071C18.6845 13.3071 18.8594 13.1322 18.8594 12.9165V10.6857C19.5413 10.2831 20 9.54095 20 8.6933V6.65443C20 6.02419 19.5254 5.46923 18.902 5.37275L16.3728 2.24291C16.1254 1.93669 15.7577 1.76111 15.3641 1.76111H4.63965C4.2427 1.76111 3.87309 1.93916 3.62559 2.24955L1.13742 5.37052C0.518086 5.46001 0.0110547 6.00509 0 6.6315V7.95622V7.95962V8.6933C0 9.54095 0.458711 10.2831 1.14062 10.6857V18.4575H0.390625ZM3.94824 13.0415H6.61012V18.4575H3.94824V13.0415ZM15.375 8.69314C15.375 9.53748 14.6881 10.2244 13.8438 10.2244C12.9995 10.2244 12.3125 9.53748 12.3125 8.69314V8.35025H15.375V8.69314ZM15.375 7.569H12.3125V6.1388H15.375V7.569ZM19.2188 8.6933C19.2188 9.52689 18.5208 10.2244 17.6875 10.2244C16.8432 10.2244 16.1562 9.53748 16.1562 8.69314V8.35025H19.2188V8.6933ZM19.2188 6.65443V7.569H16.1562V6.1388H18.7031C18.9874 6.1388 19.2188 6.37009 19.2188 6.65443ZM15.364 2.54236C15.5205 2.54236 15.6667 2.61216 15.7651 2.73388L17.8852 5.35751H15.9978L14.4657 2.54236H15.364ZM13.5763 2.54236L15.1083 5.35751H12.2649L11.898 2.54236H13.5763ZM8.85453 2.54236H11.1101L11.477 5.35751H8.5182L8.85453 2.54236ZM8.46875 6.1388H11.5312V7.569H8.46875V6.1388ZM8.46875 8.35025H11.5312V8.69314C11.5312 9.53748 10.8443 10.2244 10 10.2244C9.15566 10.2244 8.46875 9.53748 8.46875 8.69314V8.35025ZM7.6875 8.69314C7.6875 9.53748 7.00059 10.2244 6.15625 10.2244C5.31191 10.2244 4.625 9.53748 4.625 8.69314V8.6931C4.625 8.6897 4.62496 8.6863 4.62488 8.6829L4.61602 8.35025H7.6875V8.69314ZM7.6875 7.569H4.60547V6.1388H7.6875V7.569ZM6.42262 2.54236H8.06773L7.73141 5.35751H4.87531L6.42262 2.54236ZM4.23645 2.73658C4.33484 2.61318 4.4818 2.54236 4.63965 2.54236H5.53117L3.98383 5.35751H2.14695L4.23645 2.73658ZM0.804531 6.64529C0.809453 6.36599 1.0407 6.13876 1.32008 6.13876H1.33594H3.82422V7.56896H0.804531V6.64529ZM0.78125 8.6933V8.35025H3.83445L3.84367 8.69603C3.84215 9.52697 3.14539 10.2244 2.3125 10.2244C1.47922 10.2244 0.78125 9.52689 0.78125 8.6933Z" fill="#CED0D2"/>
<path d="M11.4537 12.9487H9.33484C9.1191 12.9487 8.94422 13.1237 8.94422 13.3394V15.9306H8.84961C8.63387 15.9306 8.45898 16.1056 8.45898 16.3213C8.45898 16.537 8.63387 16.7119 8.84961 16.7119H11.9389C12.1547 16.7119 12.3296 16.537 12.3296 16.3213C12.3296 16.1056 12.1547 15.9306 11.9389 15.9306H11.8443V13.3394C11.8443 13.1237 11.6694 12.9487 11.4537 12.9487ZM11.063 15.9306H9.72547V13.73H11.063V15.9306Z" fill="#CED0D2"/>
<path d="M16.2906 12.9487H14.1718C13.9561 12.9487 13.7811 13.1237 13.7811 13.3394V15.9306H13.6865C13.4708 15.9306 13.2959 16.1056 13.2959 16.3213C13.2959 16.537 13.4708 16.7119 13.6865 16.7119H16.7759C16.9916 16.7119 17.1665 16.537 17.1665 16.3213C17.1665 16.1056 16.9916 15.9306 16.7759 15.9306H16.6812V13.3394C16.6812 13.1237 16.5063 12.9487 16.2906 12.9487ZM15.9 15.9306H14.5624V13.73H15.9V15.9306Z" fill="#CED0D2"/>
<path d="M4.39233 15.916C4.4617 16.1092 4.67565 16.2183 4.87299 16.1582C5.08971 16.0922 5.20768 15.8449 5.12026 15.6352C4.93034 15.179 4.22624 15.4535 4.39233 15.916Z" fill="#CED0D2"/>
<path d="M18.2368 14.2696C18.0689 14.3942 18.0298 14.6354 18.1492 14.8069C18.2688 14.9788 18.5119 15.0233 18.6859 14.9078C18.863 14.7901 18.9115 14.5429 18.7937 14.3663C18.6732 14.1821 18.4122 14.1395 18.2368 14.2696Z" fill="#CED0D2"/>
</svg>
