<svg width="20" height="20" viewBox="0 0 20 20" fill="none" xmlns="http://www.w3.org/2000/svg">
<path d="M17.7295 18.807H2.27053C1.01864 18.807 0 17.7883 0 16.5365V3.42996C0 2.17807 1.01864 1.15942 2.27053 1.15942H17.7295C18.9814 1.15942 20 2.17807 20 3.42996V16.5365C20 17.7883 18.9814 18.807 17.7295 18.807ZM2.27053 1.83575C1.39153 1.83575 0.676328 2.55095 0.676328 3.42996V16.5365C0.676328 17.4155 1.39153 18.1307 2.27053 18.1307H17.7295C18.6085 18.1307 19.3237 17.4155 19.3237 16.5365V3.42996C19.3237 2.55095 18.6085 1.83575 17.7295 1.83575H2.27053Z" fill="#CED0D2"/>
<path d="M16.9479 13.6441H11.6341C11.4472 13.6441 11.2959 13.4928 11.2959 13.3059C11.2959 13.1193 11.4472 12.9678 11.6341 12.9678H16.9479C17.1345 12.9678 17.286 13.1193 17.286 13.3059C17.286 13.4928 17.1347 13.6441 16.9479 13.6441Z" fill="#CED0D2"/>
<path d="M16.9479 16.089H11.6341C11.4472 16.089 11.2959 15.9377 11.2959 15.7509C11.2959 15.5643 11.4472 15.4127 11.6341 15.4127H16.9479C17.1345 15.4127 17.286 15.5643 17.286 15.7509C17.286 15.9377 17.1347 16.089 16.9479 16.089Z" fill="#CED0D2"/>
<path d="M16.9479 8.75433H11.6341C11.4472 8.75433 11.2959 8.60299 11.2959 8.41617C11.2959 8.22954 11.4472 8.078 11.6341 8.078H16.9479C17.1345 8.078 17.286 8.22954 17.286 8.41617C17.286 8.60299 17.1347 8.75433 16.9479 8.75433Z" fill="#CED0D2"/>
<path d="M16.9479 11.1993H11.6341C11.4472 11.1993 11.2959 11.0479 11.2959 10.8611C11.2959 10.6745 11.4472 10.5229 11.6341 10.5229H16.9479C17.1345 10.5229 17.286 10.6745 17.286 10.8611C17.286 11.0479 17.1347 11.1993 16.9479 11.1993Z" fill="#CED0D2"/>
<path d="M19.6618 5.68743H0.338164C0.151344 5.68743 0 5.53609 0 5.34927C0 5.16245 0.151344 5.01111 0.338164 5.01111H19.6618C19.8487 5.01111 20 5.16245 20 5.34927C20 5.53609 19.8487 5.68743 19.6618 5.68743Z" fill="#CED0D2"/>
<path d="M4.87469 4.48215C4.29441 4.48215 3.82227 4.0102 3.82227 3.42992C3.82227 2.84964 4.29441 2.37769 4.87469 2.37769C5.45496 2.37769 5.92692 2.84964 5.92692 3.42992C5.92692 4.0102 5.45496 4.48215 4.87469 4.48215ZM4.87469 3.05401C4.6673 3.05401 4.49859 3.22272 4.49859 3.42992C4.49859 3.63712 4.6673 3.80583 4.87469 3.80583C5.08189 3.80583 5.25059 3.63712 5.25059 3.42992C5.25059 3.22272 5.08189 3.05401 4.87469 3.05401Z" fill="#CED0D2"/>
<path d="M2.43895 4.48215C1.85887 4.48215 1.38672 4.0102 1.38672 3.42992C1.38672 2.84964 1.85887 2.37769 2.43895 2.37769C3.01923 2.37769 3.49138 2.84964 3.49138 3.42992C3.49138 4.0102 3.01923 4.48215 2.43895 4.48215ZM2.43895 3.05401C2.23175 3.05401 2.06305 3.22272 2.06305 3.42992C2.06305 3.63712 2.23175 3.80583 2.43895 3.80583C2.64634 3.80583 2.81505 3.63712 2.81505 3.42992C2.81505 3.22272 2.64634 3.05401 2.43895 3.05401Z" fill="#CED0D2"/>
<path d="M7.31102 4.48215C6.73075 4.48215 6.25879 4.0102 6.25879 3.42992C6.25879 2.84964 6.73075 2.37769 7.31102 2.37769C7.8913 2.37769 8.36345 2.84964 8.36345 3.42992C8.36345 4.0102 7.8913 4.48215 7.31102 4.48215ZM7.31102 3.05401C7.10363 3.05401 6.93512 3.22272 6.93512 3.42992C6.93512 3.63712 7.10382 3.80583 7.31102 3.80583C7.51841 3.80583 7.68712 3.63712 7.68712 3.42992C7.68712 3.22272 7.51841 3.05401 7.31102 3.05401Z" fill="#CED0D2"/>
<path d="M9.08183 16.089H2.94656C2.75974 16.089 2.6084 15.9377 2.6084 15.7509V8.41617C2.6084 8.22954 2.75974 8.078 2.94656 8.078H9.08183C9.26865 8.078 9.41999 8.22954 9.41999 8.41617V15.7509C9.41999 15.9377 9.26865 16.089 9.08183 16.089ZM3.28473 15.4127H8.74366V8.75433H3.28473V15.4127Z" fill="#CED0D2"/>
</svg>
